<svg width="279" height="240" viewBox="0 0 279 240" fill="none" xmlns="http://www.w3.org/2000/svg">
<path d="M139.5 207.471C199.796 207.471 248.676 195.283 248.676 180.248C248.676 165.213 199.796 153.025 139.5 153.025C79.2037 153.025 30.324 165.213 30.324 180.248C30.324 195.283 79.2037 207.471 139.5 207.471Z" fill="url(#paint0_linear_6703_12665)"/>
<path d="M158.292 81.73H206.315C212.449 81.73 217.421 86.702 217.421 92.836V175.584C217.421 181.719 212.448 186.691 206.315 186.691H123.563C117.429 186.691 112.456 181.718 112.456 175.584V139.946H155.164C161.298 139.946 158.291 134.973 158.291 128.839V81.73H158.292Z" fill="url(#paint1_linear_6703_12665)"/>
<path d="M209.378 90.96H120.5V166.137H209.378V90.96Z" fill="url(#paint2_linear_6703_12665)"/>
<path d="M82.4779 175.944H79.7909C66.7289 175.944 56.1409 166.035 56.1409 152.973C56.1409 149.724 56.1409 148.421 56.1409 143.811C59.0119 149.334 64.5929 153.786 71.2479 153.786H82.4769V149.175C82.4769 147.453 84.2519 146.519 85.2749 146.519C86.9969 146.519 88.5639 148.519 90.3319 149.962C95.4779 154.153 100.094 157.724 105.088 162.424C106.466 163.721 106.378 166.012 105.088 167.211C100.066 171.877 95.4789 175.482 90.3319 179.673C88.5629 181.116 86.9969 183.116 85.2749 183.116C84.2519 183.116 82.4769 182.181 82.4769 180.459L82.4779 175.944Z" fill="#E63AFC"/>
<path d="M195.965 36.1208L198.653 36.0728C211.712 35.8448 222.471 45.5688 222.7 58.6278C222.757 61.8758 222.779 63.1798 222.86 67.7888C219.893 62.3158 214.235 57.9628 207.581 58.0788L196.352 58.2748L196.433 62.8848C196.463 64.6078 194.704 65.5728 193.682 65.5908C191.96 65.6198 190.359 63.6478 188.566 62.2358C183.346 58.1348 178.67 54.6448 173.594 50.0328C172.194 48.7608 172.241 46.4688 173.51 45.2478C178.45 40.4938 182.974 36.8098 188.047 32.5298C189.789 31.0548 191.32 29.0278 193.043 28.9978C194.065 28.9798 195.856 29.8838 195.887 31.6058L195.965 36.1208Z" fill="#E63AFC"/>
<path d="M61.3059 46.0919C61.3059 39.9569 66.2789 34.9849 72.4129 34.9849H155.165C161.299 34.9849 166.271 39.9579 166.271 46.0919V81.7299H123.563C117.429 81.7299 112.456 86.7019 112.456 92.8359V139.946H72.4129C66.2789 139.946 61.3059 134.973 61.3059 128.839V46.0919Z" fill="url(#paint3_linear_6703_12665)"/>
<path d="M158.227 43.3066H69.3501V118.484H158.227V43.3066Z" fill="url(#paint4_linear_6703_12665)"/>
<path d="M153.631 154.276C153.631 152.328 155.211 150.748 157.159 150.748C159.108 150.748 160.687 152.328 160.687 154.276C160.687 156.225 159.108 157.804 157.159 157.804C155.211 157.805 153.631 156.226 153.631 154.276ZM174.721 121.443H179.448L180.99 116.158C181.504 113.908 183.287 112.998 185.011 113.125H196.116C201.318 113.125 201.318 120.928 196.116 120.928H187.905L183.197 138.241L181.223 145.912C181.015 147.083 180.323 148.158 179.146 148.694C178.678 148.912 178.169 149.026 177.655 149.046L177.388 149.053H152.007C151.334 149.062 150.663 148.909 150.071 148.574C149.066 148.021 148.459 147.052 148.25 145.995L146.97 141.855H162.252C169.139 141.855 174.721 136.273 174.721 129.387V121.443ZM168.108 154.276C168.108 152.328 169.687 150.748 171.636 150.748C173.584 150.748 175.164 152.328 175.164 154.276C175.164 156.225 173.584 157.804 171.636 157.804C169.688 157.805 168.108 156.226 168.108 154.276Z" fill="#B34BBA"/>
<path d="M92.7741 97.766C92.7741 95.818 94.3541 94.239 96.3021 94.239C98.2501 94.239 99.8301 95.818 99.8301 97.766C99.8301 99.715 98.2501 101.294 96.3021 101.294C94.3541 101.294 92.7741 99.715 92.7741 97.766ZM81.6721 66.854C82.2251 65.826 83.2491 65.047 84.7451 64.944C85.0231 64.913 85.3041 64.909 85.5821 64.933H118.591L120.133 59.647C120.647 57.397 122.43 56.488 124.154 56.614H135.258C140.461 56.614 140.461 64.418 135.258 64.418H127.048L124.738 72.909H123.24C116.353 72.909 110.771 78.491 110.771 85.377V92.541H91.1501C90.4781 92.55 89.8061 92.397 89.2141 92.062C88.2091 91.509 87.6021 90.54 87.3931 89.484L81.5261 70.513C81.3051 70.002 81.1921 69.446 81.1861 68.755C81.1721 68.033 81.3541 67.394 81.6721 66.854ZM107.251 97.766C107.251 95.818 108.831 94.239 110.779 94.239V101.295C108.831 101.294 107.251 99.715 107.251 97.766Z" fill="#1F55E2"/>
<path d="M112.457 87.0628C112.457 80.1758 118.04 74.5938 124.925 74.5938H157.903V90.9597H172.87V127.479C172.87 134.365 167.287 139.948 160.401 139.948H112.457V87.0628Z" fill="url(#paint5_linear_6703_12665)"/>
<path d="M121.928 111.728H141.699V116.802H121.928V111.728ZM146.249 121.918H163.397V126.991H146.249V121.918ZM146.249 102.07H163.397V107.144H146.249V102.07ZM146.249 111.728H163.397V116.802H146.249V111.728ZM135.28 107.145L131.725 101.928L128.17 107.145H121.927L128.603 97.3468L121.927 87.5488H128.169L131.724 92.7668L135.279 87.5488H141.521L134.845 97.3468L141.521 107.145H135.28ZM121.928 121.918H141.699V126.991H121.928V121.918Z" fill="#FEFEFE"/>
<path d="M157.902 74.582L172.852 90.96H157.902V74.582Z" fill="#1C7847"/>
<defs>
<linearGradient id="paint0_linear_6703_12665" x1="30.3242" y1="180.248" x2="248.676" y2="180.248" gradientUnits="userSpaceOnUse">
<stop stop-color="#00F59F"/>
<stop offset="1" stop-color="#4DD8DB"/>
</linearGradient>
<linearGradient id="paint1_linear_6703_12665" x1="124.708" y1="161.054" x2="220.197" y2="117.468" gradientUnits="userSpaceOnUse">
<stop stop-color="#E95A9E"/>
<stop offset="1" stop-color="#F95B9B"/>
</linearGradient>
<linearGradient id="paint2_linear_6703_12665" x1="132.931" y1="105.911" x2="200.083" y2="153.403" gradientUnits="userSpaceOnUse">
<stop offset="0.3103" stop-color="#F5FEFE"/>
<stop offset="1" stop-color="#4DD8DB"/>
</linearGradient>
<linearGradient id="paint3_linear_6703_12665" x1="61.3061" y1="87.4657" x2="166.271" y2="87.4657" gradientUnits="userSpaceOnUse">
<stop stop-color="#1B2BE3"/>
<stop offset="0.6487" stop-color="#1A79E2"/>
<stop offset="0.9677" stop-color="#1A9BE2"/>
</linearGradient>
<linearGradient id="paint4_linear_6703_12665" x1="69.3502" y1="80.8946" x2="158.228" y2="80.8946" gradientUnits="userSpaceOnUse">
<stop stop-color="#4DD8DB"/>
<stop offset="1" stop-color="#F5FEFE"/>
</linearGradient>
<linearGradient id="paint5_linear_6703_12665" x1="118.957" y1="121.958" x2="170.311" y2="90.1376" gradientUnits="userSpaceOnUse">
<stop stop-color="#2AB26B"/>
<stop offset="1" stop-color="#07F2A3"/>
</linearGradient>
</defs>
</svg>
