<svg width="220" height="220" viewBox="0 0 220 220" fill="none" xmlns="http://www.w3.org/2000/svg">
<g clip-path="url(#clip0_5711_1400)">
<path d="M111.176 199.473C171.472 199.473 220.352 187.285 220.352 172.25C220.352 157.216 171.472 145.027 111.176 145.027C50.8798 145.027 2 157.216 2 172.25C2 187.285 50.8798 199.473 111.176 199.473Z" fill="url(#paint0_linear_5711_1400)"/>
<path d="M129.969 73.7305H177.992C184.126 73.7305 189.098 78.7025 189.098 84.8365V167.584C189.098 173.719 184.125 178.691 177.992 178.691H95.2398C89.1058 178.691 84.1328 173.718 84.1328 167.584V131.946H126.841C132.975 131.946 129.968 126.973 129.968 120.839V73.7305H129.969Z" fill="url(#paint1_linear_5711_1400)"/>
<path d="M181.054 82.9609H92.1758V158.138H181.054V82.9609Z" fill="url(#paint2_linear_5711_1400)"/>
<path d="M54.1534 167.945H51.4664C38.4044 167.945 27.8164 158.037 27.8164 144.975C27.8164 141.726 27.8164 140.423 27.8164 135.812C30.6874 141.335 36.2684 145.787 42.9234 145.787H54.1524V141.176C54.1524 139.454 55.9274 138.52 56.9504 138.52C58.6724 138.52 60.2394 140.521 62.0074 141.964C67.1534 146.155 71.7694 149.725 76.7634 154.425C78.1414 155.722 78.0534 158.013 76.7634 159.212C71.7414 163.878 67.1544 167.483 62.0074 171.674C60.2384 173.118 58.6724 175.117 56.9504 175.117C55.9274 175.117 54.1524 174.182 54.1524 172.46L54.1534 167.945Z" fill="#E63AFC"/>
<path d="M167.64 28.1233L170.328 28.0753C183.387 27.8473 194.146 37.5713 194.375 50.6303C194.432 53.8783 194.454 55.1823 194.535 59.7913C191.568 54.3183 185.91 49.9653 179.256 50.0813L168.027 50.2773L168.108 54.8873C168.138 56.6103 166.379 57.5753 165.357 57.5933C163.635 57.6223 162.034 55.6503 160.241 54.2383C155.021 50.1373 150.345 46.6473 145.269 42.0353C143.869 40.7633 143.916 38.4713 145.185 37.2503C150.125 32.4963 154.649 28.8123 159.722 24.5323C161.464 23.0573 162.995 21.0303 164.718 21.0003C165.74 20.9823 167.531 21.8863 167.562 23.6083L167.64 28.1233Z" fill="#E63AFC"/>
<path d="M32.9824 38.0953C32.9824 31.9603 37.9554 26.9883 44.0894 26.9883H126.841C132.975 26.9883 137.947 31.9613 137.947 38.0953V73.7333H95.2394C89.1054 73.7333 84.1324 78.7053 84.1324 84.8393V131.949H44.0894C37.9554 131.949 32.9824 126.976 32.9824 120.842V38.0953Z" fill="url(#paint3_linear_5711_1400)"/>
<path d="M129.902 35.3086H41.0254V110.486H129.902V35.3086Z" fill="url(#paint4_linear_5711_1400)"/>
<path d="M125.307 146.28C125.307 144.332 126.887 142.752 128.835 142.752C130.784 142.752 132.363 144.332 132.363 146.28C132.363 148.229 130.784 149.808 128.835 149.808C126.887 149.809 125.307 148.23 125.307 146.28ZM146.397 113.447H151.124L152.666 108.162C153.18 105.912 154.963 105.002 156.687 105.129H167.792C172.994 105.129 172.994 112.932 167.792 112.932H159.581L154.873 130.245L152.899 137.916C152.691 139.087 151.999 140.162 150.822 140.698C150.354 140.916 149.845 141.03 149.331 141.05L149.064 141.057H123.683C123.01 141.066 122.339 140.913 121.747 140.578C120.742 140.025 120.135 139.056 119.926 137.999L118.646 133.859H133.928C140.815 133.859 146.397 128.277 146.397 121.391V113.447ZM139.784 146.28C139.784 144.332 141.363 142.752 143.312 142.752C145.26 142.752 146.84 144.332 146.84 146.28C146.84 148.229 145.26 149.808 143.312 149.808C141.364 149.809 139.784 148.23 139.784 146.28Z" fill="#B34BBA"/>
<path d="M64.4501 89.7689C64.4501 87.8209 66.0301 86.2419 67.9781 86.2419C69.9261 86.2419 71.5061 87.8209 71.5061 89.7689C71.5061 91.7179 69.9261 93.2969 67.9781 93.2969C66.0301 93.2969 64.4501 91.7179 64.4501 89.7689ZM53.3481 58.8569C53.9011 57.8289 54.9251 57.0499 56.4211 56.9469C56.6991 56.9159 56.9801 56.9119 57.2581 56.9359H90.2671L91.8091 51.6499C92.3231 49.3999 94.1061 48.4909 95.8301 48.6169H106.934C112.137 48.6169 112.137 56.4209 106.934 56.4209H98.7241L96.4141 64.9119H94.9161C88.0291 64.9119 82.4471 70.4939 82.4471 77.3799V84.5439H62.8261C62.1541 84.5529 61.4821 84.3999 60.8901 84.0649C59.8851 83.5119 59.2781 82.5429 59.0691 81.4869L53.2021 62.5159C52.9811 62.0049 52.8681 61.4489 52.8621 60.7579C52.8481 60.0359 53.0301 59.3969 53.3481 58.8569ZM78.9271 89.7689C78.9271 87.8209 80.5071 86.2419 82.4551 86.2419V93.2979C80.5071 93.2969 78.9271 91.7179 78.9271 89.7689Z" fill="#1F55E2"/>
<path d="M84.1328 79.0667C84.1328 72.1797 89.7158 66.5977 96.6008 66.5977H129.579V82.9637H144.546V119.483C144.546 126.369 138.963 131.952 132.077 131.952H84.1328V79.0667Z" fill="url(#paint5_linear_5711_1400)"/>
<path d="M93.6045 103.73H113.376V108.804H93.6045V103.73ZM117.926 113.92H135.074V118.993H117.926V113.92ZM117.926 94.0718H135.074V99.1458H117.926V94.0718ZM117.926 103.73H135.074V108.804H117.926V103.73ZM106.957 99.1468L103.402 93.9298L99.8465 99.1468H93.6035L100.28 89.3488L93.6035 79.5508H99.8455L103.401 84.7688L106.956 79.5508H113.198L106.522 89.3488L113.198 99.1468H106.957ZM93.6045 113.92H113.376V118.993H93.6045V113.92Z" fill="#FEFEFE"/>
<path d="M129.578 66.5859L144.528 82.9639H129.578V66.5859Z" fill="#1C7847"/>
</g>
<defs>
<linearGradient id="paint0_linear_5711_1400" x1="2.0002" y1="172.25" x2="220.352" y2="172.25" gradientUnits="userSpaceOnUse">
<stop stop-color="#00F59F"/>
<stop offset="1" stop-color="#4DD8DB"/>
</linearGradient>
<linearGradient id="paint1_linear_5711_1400" x1="96.3848" y1="153.054" x2="191.873" y2="109.469" gradientUnits="userSpaceOnUse">
<stop stop-color="#E95A9E"/>
<stop offset="1" stop-color="#F95B9B"/>
</linearGradient>
<linearGradient id="paint2_linear_5711_1400" x1="104.606" y1="97.912" x2="171.759" y2="145.404" gradientUnits="userSpaceOnUse">
<stop offset="0.3103" stop-color="#F5FEFE"/>
<stop offset="1" stop-color="#4DD8DB"/>
</linearGradient>
<linearGradient id="paint3_linear_5711_1400" x1="32.9826" y1="79.4691" x2="137.948" y2="79.4691" gradientUnits="userSpaceOnUse">
<stop stop-color="#1B2BE3"/>
<stop offset="0.6487" stop-color="#1A79E2"/>
<stop offset="0.9677" stop-color="#1A9BE2"/>
</linearGradient>
<linearGradient id="paint4_linear_5711_1400" x1="41.0255" y1="72.8966" x2="129.903" y2="72.8966" gradientUnits="userSpaceOnUse">
<stop stop-color="#4DD8DB"/>
<stop offset="1" stop-color="#F5FEFE"/>
</linearGradient>
<linearGradient id="paint5_linear_5711_1400" x1="90.6328" y1="113.962" x2="141.986" y2="82.1416" gradientUnits="userSpaceOnUse">
<stop stop-color="#2AB26B"/>
<stop offset="1" stop-color="#07F2A3"/>
</linearGradient>
<clipPath id="clip0_5711_1400">
<rect width="220" height="220" fill="white"/>
</clipPath>
</defs>
</svg>
